HIERARCHY
ROOT Hips
{
  OFFSET 47.5292 84.2727 -4.5951
  CHANNELS 6 Xposition Yposition Zposition Zrotation Xrotation Yrotation
  JOINT spine
  {
    OFFSET 0 6.2448 0.359107
    CHANNELS 3 Zrotation Xrotation Yrotation
    JOINT spine1
    {
      OFFSET 0 9.06941 0
      CHANNELS 3 Zrotation Xrotation Yrotation
      JOINT spine2
      {
        OFFSET 0 8.69014 0
        CHANNELS 3 Zrotation Xrotation Yrotation
        JOINT Neck
        {
          OFFSET 0 22.3112 1.06372
          CHANNELS 3 Zrotation Xrotation Yrotation
          JOINT Head
          {
            OFFSET 0 6.74081 0
            CHANNELS 3 Zrotation Xrotation Yrotation
            End Site
            {
              OFFSET 0 16.3165 -5.38097
            }
          }
        }
        JOINT RightShoulder
        {
          OFFSET -3.65916 9.38468 -0.509514
          CHANNELS 3 Zrotation Xrotation Yrotation
          JOINT RightArm
          {
            OFFSET 0 12.3089 0
            CHANNELS 3 Zrotation Xrotation Yrotation
            JOINT RightArmRoll
            {
              OFFSET 0 6.21375 0
              CHANNELS 3 Zrotation Xrotation Yrotation
              JOINT RightForeArm
              {
                OFFSET 0 18.0985 0
                CHANNELS 3 Zrotation Xrotation Yrotation
                JOINT RightForeArmRoll
                {
                  OFFSET 0 6.97279 0
                  CHANNELS 3 Zrotation Xrotation Yrotation
                  JOINT RightHand
                  {
                    OFFSET 0 13.9929 0
                    CHANNELS 3 Zrotation Xrotation Yrotation
                    End Site
                    {
                      OFFSET 0 0 0
                    }
                  }
                }
              }
            }
          }
        }
        JOINT LeftShoulder
        {
          OFFSET 3.65916 9.38468 -0.509514
          CHANNELS 3 Zrotation Xrotation Yrotation
          JOINT LeftArm
          {
            OFFSET 0 12.3089 0
            CHANNELS 3 Zrotation Xrotation Yrotation
            JOINT LeftArmRoll
            {
              OFFSET 0 6.21375 0
              CHANNELS 3 Zrotation Xrotation Yrotation
              JOINT LeftForeArm
              {
                OFFSET 0 18.0985 0
                CHANNELS 3 Zrotation Xrotation Yrotation
                JOINT LeftForeArmRoll
                {
                  OFFSET 0 6.97279 0
                  CHANNELS 3 Zrotation Xrotation Yrotation
                  JOINT LeftHand
                  {
                    OFFSET 0 13.9929 0
                    CHANNELS 3 Zrotation Xrotation Yrotation
                    End Site
                    {
                      OFFSET 0 0 0
                    }
                  }
                }
              }
            }
          }
        }
      }
    }
  }
  JOINT RightUpLeg
  {
    OFFSET -5.53516 -1.015 -0.851454
    CHANNELS 3 Zrotation Xrotation Yrotation
    JOINT RightUpLegRoll
    {
      OFFSET 0 16.4075 0
      CHANNELS 3 Zrotation Xrotation Yrotation
      JOINT RightLeg
      {
        OFFSET 0 -20.3181 0
        CHANNELS 3 Zrotation Xrotation Yrotation
        JOINT RightLegRoll
        {
          OFFSET 0 20.3846 0
          CHANNELS 3 Zrotation Xrotation Yrotation
          JOINT RightFoot
          {
            OFFSET 0 16.9668 0
            CHANNELS 3 Zrotation Xrotation Yrotation
            JOINT RightToeBase
            {
              OFFSET 0 14.1834 0
              CHANNELS 3 Zrotation Xrotation Yrotation
              End Site
              {
                OFFSET 0.0060118 6.8689 -0.791746
              }
            }
          }
        }
      }
    }
  }
  JOINT LeftUpLeg
  {
    OFFSET 5.53516 -1.015 -0.851454
    CHANNELS 3 Zrotation Xrotation Yrotation
    JOINT LeftUpLegRoll
    {
      OFFSET 0 16.4076 0
      CHANNELS 3 Zrotation Xrotation Yrotation
      JOINT LeftLeg
      {
        OFFSET 0 20.3181 0
        CHANNELS 3 Zrotation Xrotation Yrotation
        JOINT LeftLegRoll
        {
          OFFSET 0 20.5731 0
          CHANNELS 3 Zrotation Xrotation Yrotation
          JOINT LeftFoot
          {
            OFFSET 0 16.7783 0
            CHANNELS 3 Zrotation Xrotation Yrotation
            JOINT LeftToeBase
            {
              OFFSET 0 14.1834 0
              CHANNELS 3 Zrotation Xrotation Yrotation
              End Site
              {
                OFFSET -0.0269423 6.8689 -0.791746
              }
            }
          }
        }
      }
    }
  }
}
MOTION
Frames: 5
Frame Time: 0.00208333
45.4522 83.9454 -7.13066 -0.338387 2.1457 -3.09227 -0.0620542 -1.27731 -0.0137781 -0.113789 1.44791 -0.0220107 -0.114052 3.09297 -0.0202225 1.38456 3.18149 -0.97995 3.58573 2.68548 -0.422687 64.5592 -2.36781 -1.95056 112.149 8.75045 6.81573 -2.88658e-006 1.61138e-007 -3.10227e-006 10.9041 14.9737 -2.09428 -5.1095e-007 7.28909e-006 -3 8.02891 -4.95143 0.697685 -61.125 -8.07947 5.06068 -116.279 5.49906 -13.9396 -5.41688e-015 -4.17448e-015 -3.18055e-015 -3.33857 18.1573 1.05823 1.6789e-006 3.49753e-007 2.99999 -8.02987 -4.95144 -0.697666 178.617 8.82208 -0.0814653 180 7.01575e-015 179.053 178.217 12.8815 179.342 3.05188e-006 -7.80709e-006 0.208133 -18.9239 69.5147 20.8301 8.13208 25.2329 -3.48586 -176.082 2.82841 -4.69624 4.54188e-006 -4.6773e-006 -1.02017 -4.3362 -13.6043 0.144728 -6.43784e-007 7.63522e-007 -0.244402 24.9409 73.8788 -26.2137 -8.24325 26.9498 3.51846 
45.448 83.9435 -7.12409 -0.343936 2.15517 -3.08587 -0.0610892 -1.27529 -0.0123985 -0.113936 1.45162 -0.020199 -0.114195 3.09668 -0.0183981 1.38979 3.15375 -0.982452 3.55661 2.68335 -0.425408 64.564 -2.37522 -1.95513 112.154 8.78612 6.72403 -2.88658e-006 1.61138e-007 -3.10227e-006 10.9589 15.03 -2.10522 -5.1095e-007 7.28909e-006 -3 8.02891 -4.95143 0.697685 -61.1142 -8.07458 5.05746 -116.289 5.53001 -13.908 7.8023e-015 3.08116e-015 3.18055e-015 -3.34797 18.1994 1.0619 1.6789e-006 3.49753e-007 2.99999 -8.02987 -4.95144 -0.697666 178.633 8.86163 -0.089749 180 7.01575e-015 179.054 178.212 12.937 179.343 3.05188e-006 -7.80709e-006 0.210085 -18.9618 69.5388 20.8538 8.13208 25.2329 -3.48586 -176.093 2.86677 -4.66189 4.54188e-006 -4.6773e-006 -1.01986 -4.29899 -13.6625 0.149413 -6.43784e-007 7.63522e-007 -0.247244 24.9986 73.9203 -26.2776 -8.24094 26.9195 3.50325 
45.4803 83.9053 -7.07992 -0.349669 2.16403 -3.07957 -0.0601126 -1.27319 -0.0109672 -0.114166 1.45547 -0.0183102 -0.114422 3.10054 -0.0164949 1.39593 3.12716 -0.985231 3.52698 2.68012 -0.42816 64.5702 -2.38236 -1.95968 112.157 8.82168 6.63081 -2.88658e-006 1.61138e-007 -3.10227e-006 11.0154 15.0872 -2.11638 -5.1095e-007 7.28909e-006 -3 8.02891 -4.95143 0.697685 -61.1027 -8.0689 5.05374 -116.3 5.56045 -13.8767 -4.52235e-015 4.96962e-016 -6.36111e-015 -3.35727 18.242 1.06561 1.6789e-006 3.49753e-007 2.99999 -8.02987 -4.95144 -0.697666 178.65 8.90126 -0.0975267 180 7.01575e-015 179.055 178.206 12.9935 179.344 3.05188e-006 -7.80709e-006 0.212076 -19.0006 69.563 20.8778 8.13208 25.2329 -3.48586 -176.103 2.90433 -4.62729 4.54188e-006 -4.6773e-006 -1.01956 -4.26139 -13.7205 0.154101 -6.43784e-007 7.63522e-007 -0.250077 25.0575 73.9624 -26.3427 -8.2386 26.8885 3.48795 
45.4715 83.9142 -7.09797 -0.355531 2.17246 -3.07335 -0.0591279 -1.27102 -0.00949976 -0.114455 1.45943 -0.0163676 -0.114708 3.10449 -0.0145365 1.4027 3.10138 -0.988205 3.49699 2.67612 -0.430934 64.5774 -2.38929 -1.96419 112.16 8.85715 6.5365 -2.88658e-006 1.61138e-007 -3.10227e-006 11.0729 15.145 -2.12769 -5.1095e-007 7.28909e-006 -3 8.02891 -4.95143 0.697685 -61.0907 -8.06268 5.04967 -116.31 5.59053 -13.8454 1.16289e-014 3.67752e-015 -0 -3.36651 18.2849 1.06933 1.6789e-006 3.49753e-007 2.99999 -8.02987 -4.95144 -0.697666 178.667 8.94096 -0.10495 180 7.01576e-015 179.056 178.199 13.0505 179.345 3.05188e-006 -7.80709e-006 0.214094 -19.0401 69.5873 20.902 8.13208 25.2329 -3.48586 -176.114 2.94134 -4.59252 4.54188e-006 -4.6773e-006 -1.01926 -4.22353 -13.7784 0.15879 -6.43784e-007 7.63522e-007 -0.252903 25.1172 74.0048 -26.4088 -8.23624 26.8571 3.47258 
45.4671 83.9122 -7.08206 -0.361469 2.18064 -3.06716 -0.0581386 -1.26883 -0.00801169 -0.114779 1.46344 -0.0143942 -0.115029 3.1085 -0.0125466 1.40983 3.07606 -0.99129 3.4668 2.67167 -0.43372 64.585 -2.39612 -1.96869 112.161 8.89258 6.44157 -2.88658e-006 1.61138e-007 -3.10227e-006 11.1311 15.2032 -2.13909 -5.1095e-007 7.28909e-006 -3 8.02891 -4.95143 0.697685 -61.0784 -8.05614 5.04541 -116.321 5.62042 -13.8143 -1.13804e-014 -7.25564e-015 -6.36111e-015 -3.37572 18.328 1.07307 1.6789e-006 3.49753e-007 2.99999 -8.02987 -4.95144 -0.697666 178.684 8.9807 -0.112173 180 7.01576e-015 179.057 178.192 13.1078 179.347 3.05188e-006 -7.80709e-006 0.216128 -19.08 69.6117 20.9262 8.13208 25.2329 -3.48586 -176.125 2.97804 -4.55765 4.54188e-006 -4.6773e-006 -1.01897 -4.1855 -13.8363 0.163481 -6.43784e-007 7.63522e-007 -0.255725 25.1775 74.0475 -26.4756 -8.23389 26.8254 3.45719 
